Coordinates
version=1
nRows=27
nColumns=12
inDegrees=yes

Units are S.I. units (second, meters, Newtons, ...)
Angles are in degrees

endheader
time	SC_y	SC_z	SC_x	AC_y	AC_z	AC_x	GH_y	GH_z	GH_yy	EL_x	PS_y
       0.0              -35.65          17.48          15.46          33.63          -10.4           7.18         -121.5         -2.295         -63.64          6.805          102.8
  0.003681              -35.65          17.48          15.46          33.63          -10.4          7.182         -121.5         -2.282         -63.62          6.821          102.8
  0.007362              -35.65          17.48          15.46          33.64          -10.4          7.184         -121.4         -2.268         -63.61          6.837          102.8
   0.01104              -35.65          17.49          15.47          33.64          -10.4          7.186         -121.4         -2.254         -63.59          6.854          102.8
   0.01472              -35.65          17.49          15.47          33.65          -10.4          7.188         -121.3         -2.238         -63.58          6.873          102.8
    0.0184              -35.65           17.5          15.48          33.65          -10.4           7.19         -121.3         -2.221         -63.56          6.893          102.8
   0.02208              -35.65           17.5          15.48          33.66          -10.4          7.193         -121.2         -2.203         -63.54          6.914          102.8
   0.02577              -35.65           17.5          15.49          33.66          -10.4          7.195         -121.2         -2.184         -63.52          6.936          102.8
   0.02945              -35.65          17.51          15.49          33.67         -10.39          7.198         -121.1         -2.163          -63.5           6.96          102.8
   0.03313              -35.65          17.52           15.5          33.67         -10.39          7.201         -121.0         -2.141         -63.47          6.986          102.8
   0.03681              -35.65          17.52           15.5          33.68         -10.39          7.204         -121.0         -2.118         -63.45          7.014          102.8
   0.04049              -35.65          17.53          15.51          33.69         -10.39          7.208         -120.9         -2.092         -63.42          7.044          102.8
   0.04417              -35.65          17.53          15.52          33.69         -10.39          7.212         -120.8         -2.065         -63.39          7.076          102.8
   0.04785              -35.65          17.54          15.53           33.7         -10.39          7.216         -120.7         -2.035         -63.36          7.111          102.8
   0.05153              -35.65          17.55          15.53          33.71         -10.39           7.22         -120.6         -2.003         -63.33          7.149          102.8
   0.05521              -35.64          17.56          15.54          33.72         -10.39          7.225         -120.5         -1.968         -63.29          7.189          102.8
   0.05889              -35.64          17.57          15.55          33.73         -10.39           7.23         -120.3          -1.93         -63.25          7.234          102.9
   0.06257              -35.64          17.58          15.56          33.74         -10.39          7.236         -120.2         -1.889          -63.2          7.282          102.9
   0.06625              -35.64          17.59          15.57          33.76         -10.39          7.242         -120.1         -1.844         -63.16          7.335          102.9
   0.06994              -35.64           17.6          15.59          33.77         -10.39          7.249         -119.9         -1.795          -63.1          7.393          102.9
   0.07362              -35.64          17.61           15.6          33.79         -10.39          7.256         -119.7         -1.741         -63.04          7.457          102.9
    0.0773              -35.64          17.63          15.62           33.8         -10.39          7.265         -119.5         -1.681         -62.98          7.526          102.9
   0.08098              -35.64          17.64          15.63          33.82         -10.39          7.274         -119.3         -1.615         -62.91          7.604          102.9
   0.08466              -35.64          17.66          15.65          33.84         -10.39          7.284         -119.1         -1.542         -62.83          7.689          103.0
   0.08834              -35.64          17.68          15.67          33.86         -10.38          7.295         -118.8         -1.461         -62.75          7.784          103.0
   0.09202              -35.64           17.7           15.7          33.89         -10.38          7.307         -118.5         -1.371         -62.65          7.891          103.0
    0.0957              -35.64          17.73          15.72          33.92         -10.38          7.321         -118.2          -1.27         -62.54          8.009          103.0
